<svg width="111.48125px" height="122px" xmlns="http://www.w3.org/2000/svg" viewBox="194.259375 14 111.48125 122" style="background: rgba(5, 17, 3, 0);" preserveAspectRatio="xMidYMid"><defs><linearGradient id="editing-glowing-gradient" x1="0.8885729807284855" x2="0.1114270192715146" y1="0.8146601955249189" y2="0.1853398044750812"><stop offset="0" stop-color="#67ff43"></stop><stop offset="1" stop-color="#90ffff"></stop></linearGradient><filter id="editing-glowing" x="-100%" y="-100%" width="300%" height="300%"><feGaussianBlur in="SourceGraphic" result="blur" stdDeviation="10"></feGaussianBlur><feMerge><feMergeNode in="blur"></feMergeNode><feMergeNode in="SourceGraphic"></feMergeNode></feMerge></filter></defs><g filter="url(#editing-glowing)"><g transform="translate(217.3900139927864, 107.02999877929688)"><path d="M10.69-0.32L0.64-14.72L13.31-27.78L13.31-27.78Q15.36-29.82 17.92-29.82L17.92-29.82L17.92-29.82Q18.88-29.82 19.81-29.25L19.81-29.25L19.81-29.25Q20.74-28.67 21.12-27.58L21.12-27.58L18.75-25.28L9.34-15.55L15.30-7.55L15.30-7.55Q16.06-6.59 16.06-5.54L16.06-5.54L16.06-5.54Q16.06-4.48 15.74-3.62L15.74-3.62L15.74-3.62Q15.42-2.75 14.72-2.05L14.72-2.05L14.72-2.05Q13.31-0.45 10.69-0.32L10.69-0.32ZM18.37 9.54L18.37 9.54L18.37 9.54Q18.37 8.38 18.94 6.72L18.94 6.72L39.87-51.07L39.87-51.07Q41.02-51.26 43.30-51.26L43.30-51.26L43.30-51.26Q45.57-51.26 46.94-50.66L46.94-50.66L46.94-50.66Q48.32-50.05 48.32-48.19L48.32-48.19L48.32-48.19Q48.32-46.59 47.30-43.65L47.30-43.65L26.94 12.54L26.94 12.54Q26.43 12.80 23.42 12.80L23.42 12.80L23.42 12.80Q18.37 12.80 18.37 9.54ZM44.10-2.62L44.10-2.62L48.32-6.78L55.87-14.66L51.65-20.35L51.65-20.35Q50.69-21.57 49.92-22.59L49.92-22.59L49.92-22.59Q49.15-23.62 49.15-24.64L49.15-24.64L49.15-24.64Q49.15-25.66 49.47-26.56L49.47-26.56L49.47-26.56Q49.79-27.46 50.50-28.16L50.50-28.16L50.50-28.16Q51.97-29.76 54.53-29.89L54.53-29.89L64.58-15.49L51.90-2.43L51.90-2.43Q49.86-0.38 47.30-0.38L47.30-0.38L47.30-0.38Q46.34-0.38 45.41-0.96L45.41-0.96L45.41-0.96Q44.48-1.54 44.10-2.62Z" fill="url(#editing-glowing-gradient)"></path></g></g><style>text {
  font-size: 64px;
  font-family: Arial Black;
  dominant-baseline: central;
  text-anchor: middle;
}</style></svg>